# xmcd
# Copyright (C) 1995-1998 Ti Kan
#
# Track frame offsets:
#       150
#       15975
#       32550
#       47175
#       62850
#       76950
#       89775
#       107100
#       125325
#       146475
#       159825
#       174900
#       192975
#       205125
#       223200
#       234375
#       248850
#       265725
#
# Disc length: 3837 seconds
#
# Revision: 16
# Processed by: cddbd v1.5.2PL0 Copyright (c) Steve Scherf et al.
# Submitted via: CD-Transfer v1.0
#
DISCID=f60efb12
DTITLE=Whip, The - 
DYEAR=2008
DGENRE=
TTITLE0=Sweet Hours
TTITLE1=I Feel It All
TTITLE2=When You Touch Me
TTITLE3=Non Ti Scordar Mai Di Me
TTITLE4=Rescue Me
TTITLE5=Reina De Los Angelotes
TTITLE6=Te Perdi (Re-Issue)
TTITLE7=Te Perdi (En Vivo)
TTITLE8=Cutty Buddy
TTITLE9=Walkin' My Baby Back Home
TTITLE10=Sos
TTITLE11=Psychosocial (Radio Edit)
TTITLE12=My Medicine (Lirics!)
TTITLE13=I Decided Part 2
TTITLE14=Like A Bullet
TTITLE15=Ca Mousse
TTITLE16=Blackout (Radio Edit)
TTITLE17=Situation (Hercules And Love Affair Mix)
EXTD=
EXTT0=
EXTT1=
EXTT2=
EXTT3=
EXTT4=
EXTT5=
EXTT6=
EXTT7=
EXTT8=
EXTT9=
EXTT10=
EXTT11=
EXTT12=
EXTT13=
EXTT14=
EXTT15=
EXTT16=
EXTT17=
PLAYORDER=
